{"glyphs":{"0":{"ha":817,"x_min":0,"x_max":0,"o":"m 278 997 b 283 1049 278 1017 276 1035 b 308 1088 289 1064 296 1076 b 350 1111 321 1097 333 1106 b 408 1121 368 1118 386 1121 b 499 1088 453 1121 474 1110 b 539 997 522 1065 539 1036 l 539 122 b 499 33 539 83 522 54 b 408 0 474 11 453 0 b 350 8 386 0 368 3 b 308 33 333 14 321 22 b 283 71 296 44 289 57 b 278 122 276 86 278 103 m 468 997 b 453 1042 468 1015 464 1031 b 407 1061 442 1054 428 1061 b 364 1042 386 1061 374 1054 b 350 997 353 1031 350 1015 l 350 124 b 364 78 350 106 353 90 b 407 60 374 65 386 60 b 453 78 428 60 442 65 b 468 124 464 90 468 106 "},"1":{"ha":742,"x_min":0,"x_max":0,"o":"m 393 1111 l 464 1111 l 464 0 l 393 0 l 393 1042 l 307 989 l 278 1042 "},"2":{"ha":817,"x_min":0,"x_max":0,"o":"m 539 992 b 535 847 539 992 540 890 b 511 729 529 806 521 765 b 479 631 503 694 492 661 b 442 540 468 600 442 540 b 407 450 429 511 419 482 b 365 306 392 407 375 358 b 350 69 356 256 350 142 l 539 69 l 539 0 l 278 0 l 278 69 b 282 264 278 71 278 225 b 304 382 288 307 294 346 b 340 482 313 418 328 451 b 363 540 349 501 356 519 b 413 663 381 578 397 619 b 450 807 428 706 440 754 b 467 992 461 860 467 922 l 467 993 b 453 1038 467 1011 464 1026 b 410 1057 443 1050 431 1057 b 408 1057 410 1057 408 1057 b 407 1057 408 1057 407 1057 b 364 1038 386 1057 374 1050 b 350 993 353 1026 350 1011 l 350 771 l 278 771 l 278 993 b 283 1044 278 1013 276 1031 b 308 1083 289 1060 296 1072 b 350 1107 321 1093 333 1101 b 408 1117 368 1113 386 1117 b 467 1107 431 1117 449 1113 b 508 1083 483 1101 497 1093 b 533 1044 521 1072 528 1060 b 539 993 540 1031 539 1013 "},"3":{"ha":817,"x_min":0,"x_max":0,"o":"m 539 685 b 499 603 536 650 521 624 b 494 600 497 601 496 601 b 499 596 496 599 497 597 b 539 513 521 575 536 549 l 539 151 b 533 72 539 133 539 88 b 508 33 526 57 521 44 b 467 8 496 22 483 14 b 408 0 449 3 431 0 b 350 8 386 0 368 3 b 308 33 333 14 321 22 b 283 72 296 44 290 57 b 278 142 279 85 278 119 l 278 382 l 350 382 l 350 124 b 364 78 350 106 353 90 b 407 60 374 65 386 60 b 408 60 407 60 408 60 b 410 60 408 60 410 60 b 453 78 431 60 443 65 b 467 124 464 90 467 106 l 467 510 b 453 550 467 525 463 539 b 407 569 442 563 428 569 b 400 568 404 569 403 569 l 400 631 b 407 629 403 629 404 629 b 453 649 428 629 442 636 b 467 688 463 658 467 672 l 467 997 b 453 1042 467 1015 464 1031 b 410 1061 443 1054 431 1061 b 408 1061 410 1061 408 1061 b 407 1061 408 1061 407 1061 b 364 1042 386 1061 374 1054 b 350 997 353 1031 350 1015 l 350 775 l 278 775 l 278 997 b 283 1049 278 1017 276 1035 b 308 1088 289 1064 296 1076 b 350 1111 321 1097 333 1106 b 408 1121 368 1118 386 1121 b 467 1111 431 1121 449 1118 b 508 1088 483 1106 496 1097 b 533 1049 521 1076 528 1064 b 539 997 540 1035 539 1017 "},"4":{"ha":817,"x_min":0,"x_max":0,"o":"m 468 1111 l 539 1111 l 539 0 l 468 0 l 468 478 l 278 478 l 278 1111 l 347 1111 l 347 549 l 468 549 "},"5":{"ha":817,"x_min":0,"x_max":0,"o":"m 539 1061 l 350 1061 l 350 638 l 414 638 b 499 604 454 636 475 625 b 539 513 522 582 539 551 l 539 151 b 532 72 539 133 539 88 b 508 33 526 57 521 44 b 467 8 496 22 483 14 b 408 0 449 3 431 0 b 350 8 386 0 367 3 b 308 33 333 14 319 22 b 283 72 296 44 290 57 b 278 151 278 88 278 133 l 278 382 l 350 382 l 350 124 b 364 78 350 106 353 90 b 407 60 374 65 386 60 b 408 60 407 60 408 60 b 410 60 408 60 410 60 b 453 78 431 60 443 65 b 467 124 463 90 467 106 l 467 519 b 453 558 467 535 463 547 b 407 578 442 571 428 578 l 278 578 l 278 1121 l 539 1121 "},"6":{"ha":815,"x_min":0,"x_max":0,"o":"m 350 629 b 408 638 368 635 386 638 b 467 629 431 638 449 635 b 508 604 483 624 496 615 b 533 567 521 594 528 581 b 539 515 540 551 539 535 l 539 151 b 533 72 539 133 539 88 b 508 33 526 57 521 44 b 467 8 496 22 483 14 b 408 0 449 3 431 0 b 350 8 386 0 368 3 b 308 33 333 14 321 22 b 283 72 296 44 290 57 b 278 151 278 88 278 133 l 278 997 b 283 1049 278 1017 276 1035 b 308 1088 289 1064 296 1076 b 350 1111 321 1097 333 1106 b 408 1121 368 1118 386 1121 b 467 1111 431 1121 449 1118 b 508 1088 483 1106 496 1097 b 533 1049 521 1076 528 1064 b 539 997 540 1035 539 1017 l 539 782 l 467 782 l 467 997 b 453 1042 467 1015 464 1031 b 410 1061 443 1054 431 1061 b 408 1061 410 1061 408 1061 b 407 1061 408 1061 407 1061 b 364 1042 386 1061 374 1054 b 350 997 353 1031 350 1015 m 350 124 b 364 78 350 106 353 90 b 407 60 374 65 386 60 b 408 60 407 60 408 60 b 410 60 408 60 410 60 b 453 78 431 60 443 65 b 467 124 464 90 467 106 l 467 514 b 453 560 467 532 464 547 b 410 578 443 572 431 578 b 408 578 410 578 408 578 b 407 578 408 578 407 578 b 364 560 386 578 374 572 b 350 514 353 547 350 532 "},"7":{"ha":817,"x_min":0,"x_max":0,"o":"m 278 1111 l 539 1111 l 347 0 l 278 0 l 458 1053 l 278 1053 "},"8":{"ha":817,"x_min":0,"x_max":0,"o":"m 539 722 b 533 642 539 703 539 657 b 508 604 526 628 521 614 b 504 600 507 603 506 601 b 508 596 506 599 507 597 b 533 557 521 585 528 572 b 539 506 540 543 539 525 l 539 151 b 533 72 539 133 539 88 b 508 33 526 57 521 44 b 467 8 496 22 483 14 b 408 0 449 3 431 0 b 350 8 386 0 368 3 b 308 33 333 14 321 22 b 283 72 296 44 290 57 b 278 151 278 88 278 133 l 278 506 b 283 557 278 525 276 543 b 308 596 289 572 296 585 b 313 600 310 597 311 599 b 308 604 311 601 310 603 b 283 642 296 614 290 628 b 278 722 278 657 278 703 l 278 997 b 283 1049 278 1017 276 1035 b 308 1088 289 1064 296 1076 b 350 1111 321 1097 333 1106 b 408 1121 368 1118 386 1121 b 467 1111 431 1121 449 1118 b 508 1088 483 1106 496 1097 b 533 1049 521 1076 528 1064 b 539 997 540 1035 539 1017 m 467 997 b 453 1042 467 1015 464 1031 b 410 1061 443 1054 431 1061 b 408 1061 410 1061 408 1061 b 407 1061 408 1061 407 1061 b 364 1042 386 1061 374 1054 b 350 997 353 1031 350 1015 l 350 693 b 364 649 350 675 353 660 b 407 629 374 636 386 629 b 408 629 407 629 408 629 b 410 629 408 629 410 629 b 453 649 431 629 443 636 b 467 693 464 660 467 675 m 350 124 b 364 78 350 106 353 90 b 407 60 374 65 386 60 b 408 60 407 60 408 60 b 410 60 408 60 410 60 b 453 78 431 60 443 65 b 467 124 464 90 467 106 l 467 506 b 453 550 467 524 464 539 b 410 569 443 563 431 569 b 408 569 410 569 408 569 b 407 569 408 569 407 569 b 364 550 386 569 374 563 b 350 506 353 539 350 524 "},"9":{"ha":818,"x_min":0,"x_max":0,"o":"m 278 964 b 283 1044 278 983 278 1029 b 308 1083 290 1058 296 1072 b 350 1107 321 1093 333 1101 b 408 1117 368 1113 386 1117 b 467 1107 431 1117 449 1113 b 508 1083 483 1101 496 1093 b 533 1044 521 1072 526 1058 b 539 964 539 1029 539 983 b 539 574 539 964 543 657 b 531 533 538 556 533 543 l 347 0 l 278 0 l 442 481 b 408 478 431 479 419 478 b 350 488 386 478 368 481 b 308 511 333 493 321 501 b 283 550 296 522 289 535 b 278 601 276 564 278 582 m 350 601 b 364 557 350 583 353 568 b 407 538 374 544 386 538 b 408 538 407 538 408 538 b 410 538 408 538 410 538 b 453 557 431 538 443 544 b 467 601 464 568 467 583 l 467 993 b 453 1038 467 1011 464 1026 b 410 1057 443 1050 431 1057 b 408 1057 410 1057 408 1057 b 407 1057 408 1057 407 1057 b 364 1038 386 1057 374 1050 b 350 993 353 1026 350 1011 "},"A":{"ha":819,"x_min":0,"x_max":0,"o":"m 472 0 l 456 190 l 364 190 l 347 0 l 278 0 l 375 1113 l 444 1113 l 542 0 m 371 260 l 450 260 l 410 711 "},"Á":{"ha":819,"x_min":0,"x_max":0,"o":"m 468 1319 l 379 1189 l 446 1189 l 536 1319 m 472 0 l 456 190 l 364 190 l 347 0 l 278 0 l 375 1113 l 444 1113 l 542 0 m 371 260 l 450 260 l 410 711 "},"Ä":{"ha":819,"x_min":0,"x_max":0,"o":"m 367 1210 b 317 1260 367 1238 344 1260 b 267 1210 289 1260 267 1238 b 317 1160 267 1182 289 1160 b 367 1210 344 1160 367 1182 m 554 1210 b 504 1260 554 1238 532 1260 b 454 1210 476 1260 454 1238 b 504 1160 454 1182 476 1160 b 554 1210 532 1160 554 1182 m 472 0 l 456 190 l 364 190 l 347 0 l 278 0 l 375 1113 l 444 1113 l 542 0 m 371 260 l 450 260 l 410 711 "},"À":{"ha":819,"x_min":0,"x_max":0,"o":"m 375 1318 l 464 1188 l 397 1188 l 308 1318 m 472 0 l 456 190 l 364 190 l 347 0 l 278 0 l 375 1113 l 444 1113 l 542 0 m 371 260 l 450 260 l 410 711 "},"Ã":{"ha":819,"x_min":0,"x_max":0,"o":"m 513 1222 l 306 1222 l 306 1153 l 513 1153 m 472 0 l 456 190 l 364 190 l 347 0 l 278 0 l 375 1113 l 444 1113 l 542 0 m 371 260 l 450 260 l 410 711 "},"B":{"ha":817,"x_min":0,"x_max":0,"o":"m 401 1111 b 501 1079 447 1111 476 1100 b 539 988 525 1057 539 1026 b 539 633 539 988 539 636 b 501 549 538 597 524 569 b 497 544 500 547 499 546 b 501 540 499 543 500 542 b 539 450 525 519 539 489 l 539 124 b 501 33 539 85 525 56 b 401 0 476 11 447 0 l 278 0 l 278 1111 m 347 574 l 401 574 b 451 593 421 575 440 581 b 467 629 460 603 465 615 b 468 639 467 631 468 638 l 468 988 b 451 1033 468 1007 461 1022 b 401 1053 440 1046 421 1051 l 347 1053 m 401 60 b 451 78 421 60 440 65 b 468 124 461 90 468 106 l 468 440 b 451 485 468 458 461 474 b 404 504 440 497 424 503 b 347 504 404 504 347 504 l 347 60 "},"C":{"ha":817,"x_min":0,"x_max":0,"o":"m 468 439 l 539 439 l 539 122 b 499 33 539 83 522 54 b 408 0 474 11 453 0 b 350 8 386 0 368 3 b 308 33 333 14 321 22 b 283 71 296 44 289 57 b 278 122 276 86 278 103 l 278 997 b 283 1049 278 1017 276 1035 b 308 1088 289 1064 296 1076 b 350 1111 321 1097 333 1106 b 408 1121 368 1117 386 1121 b 499 1088 453 1121 474 1110 b 539 997 522 1065 539 1036 l 539 682 l 468 682 l 468 997 b 453 1042 468 1015 464 1031 b 407 1061 442 1054 428 1061 b 364 1042 386 1061 374 1054 b 350 997 353 1031 350 1015 l 350 124 b 364 78 350 106 353 90 b 407 60 374 65 386 60 b 453 78 428 60 442 65 b 468 124 464 90 468 106 "},"Ç":{"ha":817,"x_min":0,"x_max":0,"o":"m 468 682 l 468 997 b 453 1042 468 1015 464 1031 b 407 1061 442 1054 428 1061 b 364 1042 386 1061 374 1054 b 350 997 353 1031 350 1015 l 350 124 b 364 78 350 106 353 90 b 407 60 374 65 386 60 b 453 78 428 60 442 65 b 468 124 464 90 468 106 l 468 439 l 539 439 l 539 122 b 499 33 539 83 522 54 b 433 1 479 15 461 6 l 433 -12 b 485 -86 463 -24 485 -51 b 407 -162 485 -128 450 -162 b 382 -158 399 -162 390 -161 l 382 -108 l 407 -108 b 431 -86 419 -108 431 -99 b 407 -62 431 -72 419 -62 l 382 -62 l 382 1 b 350 8 371 3 360 6 b 308 33 333 14 321 22 b 283 71 296 44 289 57 b 278 122 276 86 278 103 l 278 997 b 283 1049 278 1017 276 1035 b 308 1088 289 1064 296 1076 b 350 1111 321 1097 333 1106 b 408 1121 368 1117 386 1121 b 499 1088 453 1121 474 1110 b 539 997 522 1065 539 1036 l 539 682 "},"D":{"ha":817,"x_min":0,"x_max":0,"o":"m 401 1111 b 501 1078 447 1111 476 1100 b 539 988 525 1057 539 1026 l 539 124 b 501 33 539 85 525 56 b 401 0 476 11 447 0 l 278 0 l 278 1111 m 401 60 b 451 78 421 60 440 65 b 468 124 461 90 468 106 l 468 988 b 451 1033 468 1007 461 1022 b 401 1053 440 1046 421 1051 l 347 1053 l 347 60 "},"E":{"ha":778,"x_min":0,"x_max":0,"o":"m 347 1042 l 347 574 l 447 574 l 447 504 l 347 504 l 347 69 l 500 69 l 500 0 l 278 0 l 278 1113 l 500 1113 l 500 1042 "},"É":{"ha":778,"x_min":0,"x_max":0,"o":"m 425 1188 l 358 1188 l 447 1318 l 515 1318 m 500 1113 l 500 1042 l 347 1042 l 347 574 l 447 574 l 447 504 l 347 504 l 347 69 l 500 69 l 500 0 l 278 0 l 278 1113 "},"Ë":{"ha":778,"x_min":0,"x_max":0,"o":"m 317 1160 b 267 1210 289 1160 267 1182 b 317 1260 267 1238 289 1260 b 367 1210 344 1260 367 1238 b 317 1160 367 1182 344 1160 m 504 1260 b 554 1210 532 1260 554 1238 b 504 1160 554 1182 532 1160 b 454 1210 476 1160 454 1182 b 504 1260 454 1238 476 1260 m 500 1113 l 500 1042 l 347 1042 l 347 574 l 447 574 l 447 504 l 347 504 l 347 69 l 500 69 l 500 0 l 278 0 l 278 1113 "},"È":{"ha":778,"x_min":0,"x_max":0,"o":"m 367 1188 l 278 1318 l 344 1318 l 433 1188 m 347 1042 l 347 574 l 447 574 l 447 504 l 347 504 l 347 69 l 500 69 l 500 0 l 278 0 l 278 1113 l 500 1113 l 500 1042 "},"F":{"ha":778,"x_min":0,"x_max":0,"o":"m 500 1042 l 347 1042 l 347 574 l 447 574 l 447 504 l 347 504 l 347 0 l 278 0 l 278 1113 l 500 1113 "},"G":{"ha":817,"x_min":0,"x_max":0,"o":"m 468 682 l 468 997 b 453 1042 468 1015 464 1031 b 407 1061 442 1054 428 1061 b 364 1042 386 1061 374 1054 b 350 997 353 1031 350 1015 l 350 124 b 364 78 350 106 353 90 b 407 60 374 65 386 60 b 453 78 428 60 442 65 b 468 124 464 90 468 106 l 468 458 l 424 458 l 424 529 l 539 529 l 539 122 b 499 33 539 83 522 54 b 408 0 474 11 453 0 b 350 8 386 0 368 3 b 308 33 333 14 321 22 b 283 71 296 44 289 57 b 278 122 276 86 278 103 l 278 997 b 283 1049 278 1017 276 1035 b 308 1088 289 1064 296 1076 b 350 1111 321 1097 333 1106 b 408 1121 368 1117 386 1121 b 499 1088 453 1121 474 1110 b 539 997 522 1065 539 1036 l 539 682 "},"H":{"ha":817,"x_min":0,"x_max":0,"o":"m 469 1113 l 539 1113 l 539 0 l 469 0 l 469 454 l 347 454 l 347 0 l 278 0 l 278 1113 l 347 1113 l 347 525 l 469 525 "},"I":{"ha":625,"x_min":0,"x_max":0,"o":"m 347 0 l 347 1113 l 278 1113 l 278 0 "},"Í":{"ha":625,"x_min":0,"x_max":0,"o":"m 368 1318 l 279 1188 l 346 1188 l 436 1318 m 347 0 l 347 1113 l 278 1113 l 278 0 "},"Ï":{"ha":625,"x_min":0,"x_max":0,"o":"m 271 1210 b 221 1260 271 1238 249 1260 b 171 1210 193 1260 171 1238 b 221 1160 171 1182 193 1160 b 271 1210 249 1160 271 1182 m 458 1210 b 408 1260 458 1238 436 1260 b 358 1210 381 1260 358 1238 b 408 1160 358 1182 381 1160 b 458 1210 436 1160 458 1182 m 347 0 l 347 1113 l 278 1113 l 278 0 "},"Ì":{"ha":625,"x_min":0,"x_max":0,"o":"m 253 1318 l 342 1188 l 275 1188 l 186 1318 m 347 0 l 347 1113 l 278 1113 l 278 0 "},"J":{"ha":817,"x_min":0,"x_max":0,"o":"m 539 1111 l 467 1111 l 467 118 b 453 72 467 100 464 85 b 410 54 443 60 431 54 b 364 72 389 54 375 60 b 350 118 353 85 350 100 l 350 503 l 278 503 l 278 117 b 318 28 278 78 294 49 b 408 -6 343 6 364 -6 b 467 3 431 -6 450 -3 b 508 28 483 8 497 17 b 533 65 521 39 528 51 b 539 117 540 81 539 97 "},"K":{"ha":836,"x_min":0,"x_max":0,"o":"m 442 574 l 435 538 l 558 0 l 489 0 l 372 504 l 347 504 l 347 0 l 278 0 l 278 1113 l 347 1113 l 347 574 l 372 574 l 489 1113 l 558 1113 "},"L":{"ha":775,"x_min":0,"x_max":0,"o":"m 347 69 l 497 69 l 497 0 l 278 0 l 278 1113 l 347 1113 "},"M":{"ha":899,"x_min":0,"x_max":0,"o":"m 551 1113 l 621 1113 l 621 0 l 551 0 l 551 542 l 485 0 l 414 0 l 347 542 l 347 0 l 278 0 l 278 1113 l 347 1113 l 450 285 "},"N":{"ha":817,"x_min":0,"x_max":0,"o":"m 469 1113 l 539 1113 l 539 0 l 469 0 l 347 704 l 347 0 l 278 0 l 278 1113 l 347 1113 l 469 408 "},"Ñ":{"ha":817,"x_min":0,"x_max":0,"o":"m 306 1221 l 513 1221 l 513 1164 l 306 1164 m 469 1113 l 539 1113 l 539 0 l 469 0 l 347 704 l 347 0 l 278 0 l 278 1113 l 347 1113 l 469 408 "},"O":{"ha":817,"x_min":0,"x_max":0,"o":"m 278 993 b 283 1044 278 1013 276 1031 b 308 1083 289 1060 296 1072 b 350 1107 321 1093 333 1101 b 408 1117 368 1114 386 1117 b 499 1083 453 1117 474 1106 b 539 993 522 1061 539 1032 l 539 118 b 499 29 539 79 522 50 b 408 -4 474 7 453 -4 b 350 4 386 -4 368 -1 b 308 29 333 10 321 18 b 283 67 296 40 289 53 b 278 118 276 82 278 99 m 468 993 b 453 1038 468 1011 464 1026 b 407 1057 442 1050 428 1057 b 364 1038 386 1057 374 1050 b 350 993 353 1026 350 1011 l 350 119 b 364 74 350 101 353 86 b 407 56 374 61 386 56 b 453 74 428 56 442 61 b 468 119 464 86 468 101 "},"Ó":{"ha":817,"x_min":0,"x_max":0,"o":"m 476 1318 l 388 1188 l 454 1188 l 544 1318 m 278 993 b 283 1044 278 1013 276 1031 b 308 1083 289 1060 296 1072 b 350 1107 321 1093 333 1101 b 408 1117 368 1114 386 1117 b 499 1083 453 1117 474 1106 b 539 993 522 1061 539 1032 l 539 118 b 499 29 539 79 522 50 b 408 -4 474 7 453 -4 b 350 4 386 -4 368 -1 b 308 29 333 10 321 18 b 283 67 296 40 289 53 b 278 118 276 82 278 99 m 468 993 b 453 1038 468 1011 464 1026 b 407 1057 442 1050 428 1057 b 364 1038 386 1057 374 1050 b 350 993 353 1026 350 1011 l 350 119 b 364 74 350 101 353 86 b 407 56 374 61 386 56 b 453 74 428 56 442 61 b 468 119 464 86 468 101 "},"Ö":{"ha":817,"x_min":0,"x_max":0,"o":"m 367 1210 b 317 1260 367 1238 344 1260 b 267 1210 289 1260 267 1238 b 317 1160 267 1182 289 1160 b 367 1210 344 1160 367 1182 m 554 1210 b 504 1260 554 1238 532 1260 b 454 1210 476 1260 454 1238 b 504 1160 454 1182 476 1160 b 554 1210 532 1160 554 1182 m 278 993 b 283 1044 278 1013 276 1031 b 308 1083 289 1060 296 1072 b 350 1107 321 1093 333 1101 b 408 1117 368 1114 386 1117 b 499 1083 453 1117 474 1106 b 539 993 522 1061 539 1032 l 539 118 b 499 29 539 79 522 50 b 408 -4 474 7 453 -4 b 350 4 386 -4 368 -1 b 308 29 333 10 321 18 b 283 67 296 40 289 53 b 278 118 276 82 278 99 m 468 993 b 453 1038 468 1011 464 1026 b 407 1057 442 1050 428 1057 b 364 1038 386 1057 374 1050 b 350 993 353 1026 350 1011 l 350 119 b 364 74 350 101 353 86 b 407 56 374 61 386 56 b 453 74 428 56 442 61 b 468 119 464 86 468 101 "},"Ò":{"ha":817,"x_min":0,"x_max":0,"o":"m 344 1318 l 433 1188 l 367 1188 l 278 1318 m 278 993 b 283 1044 278 1013 276 1031 b 308 1083 289 1060 296 1072 b 350 1107 321 1093 333 1101 b 408 1117 368 1114 386 1117 b 499 1083 453 1117 474 1106 b 539 993 522 1061 539 1032 l 539 118 b 499 29 539 79 522 50 b 408 -4 474 7 453 -4 b 350 4 386 -4 368 -1 b 308 29 333 10 321 18 b 283 67 296 40 289 53 b 278 118 276 82 278 99 m 468 993 b 453 1038 468 1011 464 1026 b 407 1057 442 1050 428 1057 b 364 1038 386 1057 374 1050 b 350 993 353 1026 350 1011 l 350 119 b 364 74 350 101 353 86 b 407 56 374 61 386 56 b 453 74 428 56 442 61 b 468 119 464 86 468 101 "},"Ø":{"ha":1014,"x_min":0,"x_max":0,"o":"m 639 690 l 639 122 b 599 33 639 83 622 54 b 508 0 575 11 553 0 b 450 8 486 0 468 3 b 408 33 433 14 421 22 b 383 71 396 44 389 57 b 378 122 376 86 378 103 l 378 353 l 331 292 l 278 336 l 378 465 l 378 997 b 383 1049 378 1017 376 1035 b 408 1088 389 1064 396 1076 b 450 1111 421 1097 433 1106 b 508 1121 468 1118 486 1121 b 599 1088 553 1121 575 1110 b 639 997 622 1065 639 1036 l 639 803 l 685 863 l 736 817 m 450 558 l 568 711 l 568 997 b 553 1042 568 1015 564 1031 b 507 1061 543 1054 528 1061 b 464 1042 486 1061 474 1054 b 450 997 454 1031 450 1015 m 568 599 l 450 446 l 450 124 b 464 78 450 106 454 90 b 507 60 474 65 486 60 b 553 78 528 60 543 65 b 568 124 564 90 568 106 "},"Õ":{"ha":817,"x_min":0,"x_max":0,"o":"m 513 1222 l 306 1222 l 306 1153 l 513 1153 m 278 993 b 283 1044 278 1013 276 1031 b 308 1083 289 1060 296 1072 b 350 1107 321 1093 333 1101 b 408 1117 368 1114 386 1117 b 499 1083 453 1117 474 1106 b 539 993 522 1061 539 1032 l 539 118 b 499 29 539 79 522 50 b 408 -4 474 7 453 -4 b 350 4 386 -4 368 -1 b 308 29 333 10 321 18 b 283 67 296 40 289 53 b 278 118 276 82 278 99 m 468 993 b 453 1038 468 1011 464 1026 b 407 1057 442 1050 428 1057 b 364 1038 386 1057 374 1050 b 350 993 353 1026 350 1011 l 350 119 b 364 74 350 101 353 86 b 407 56 374 61 386 56 b 453 74 428 56 442 61 b 468 119 464 86 468 101 "},"P":{"ha":817,"x_min":0,"x_max":0,"o":"m 401 1111 b 501 1078 447 1111 476 1100 b 539 988 525 1057 539 1026 l 539 628 b 501 538 539 589 525 560 b 401 504 476 515 447 504 l 347 504 l 347 0 l 278 0 l 278 1111 m 468 988 b 451 1033 468 1007 461 1022 b 401 1053 440 1046 421 1051 l 347 1053 l 347 574 l 401 574 b 451 593 421 575 440 581 b 468 639 461 604 468 619 "},"Q":{"ha":864,"x_min":0,"x_max":0,"o":"m 586 25 l 550 -22 l 492 22 b 408 -6 471 4 449 -6 b 350 4 386 -6 368 -1 b 308 29 333 10 321 18 b 283 67 296 39 289 51 b 278 118 276 81 278 99 l 278 993 b 283 1044 278 1013 276 1029 b 308 1082 289 1058 296 1071 b 350 1107 321 1093 333 1101 b 408 1115 368 1113 386 1115 b 499 1082 453 1115 474 1104 b 539 993 522 1061 539 1032 l 539 118 b 529 68 539 99 535 83 m 350 118 b 364 74 350 100 353 85 b 407 54 374 61 386 54 b 453 74 428 54 442 61 b 468 118 464 85 468 100 l 468 992 b 453 1038 468 1010 464 1025 b 407 1056 442 1050 428 1056 b 364 1038 386 1056 374 1050 b 350 992 353 1025 350 1010 "},"R":{"ha":817,"x_min":0,"x_max":0,"o":"m 539 639 b 501 549 539 600 525 569 b 497 544 500 547 499 546 b 501 540 499 543 500 542 b 539 450 525 519 539 489 l 539 0 l 468 0 l 468 440 b 451 485 468 458 461 474 b 404 504 440 497 424 503 b 347 504 404 504 347 504 l 347 0 l 278 0 l 278 1111 l 401 1111 b 501 1078 447 1111 476 1100 b 539 988 525 1057 539 1026 m 347 1053 l 347 574 l 401 574 b 451 593 421 575 440 581 b 468 639 461 604 468 619 l 468 988 b 451 1033 468 1007 461 1022 b 401 1053 440 1046 421 1051 "},"S":{"ha":858,"x_min":0,"x_max":0,"o":"m 581 761 l 510 761 l 510 982 b 493 1028 510 1001 503 1017 b 440 1047 482 1040 461 1047 b 389 1028 419 1047 399 1040 b 374 982 378 1017 374 1001 b 389 797 374 913 378 850 b 426 653 399 744 411 696 b 476 531 442 610 458 568 b 499 472 483 510 490 492 b 531 372 511 442 522 408 b 554 254 540 336 549 297 b 558 110 560 213 558 164 b 549 58 558 90 556 74 b 521 19 542 43 532 31 b 476 -6 508 10 493 1 b 415 -14 458 -11 438 -14 b 315 19 371 -14 340 -3 b 278 110 292 42 278 71 l 278 332 l 350 332 l 350 110 b 365 64 350 92 356 76 b 418 46 376 51 397 46 b 469 64 439 46 460 51 b 485 110 481 76 485 92 b 469 296 485 181 481 243 b 432 440 460 349 447 397 b 397 531 419 472 410 501 b 360 621 397 531 372 590 b 328 719 347 651 336 685 b 304 838 318 756 310 796 b 300 982 299 881 300 929 b 310 1035 300 1001 303 1019 b 338 1072 317 1049 326 1063 b 382 1097 350 1083 365 1092 b 443 1107 400 1103 422 1107 b 543 1074 488 1107 518 1096 b 581 982 567 1051 581 1021 "},"T":{"ha":817,"x_min":0,"x_max":0,"o":"m 539 1111 l 539 1042 l 443 1042 l 443 0 l 374 0 l 374 1042 l 278 1042 l 278 1111 "},"U":{"ha":817,"x_min":0,"x_max":0,"o":"m 468 1114 l 539 1114 l 539 119 b 499 31 539 81 522 51 b 408 -3 474 8 453 -3 b 350 6 386 -3 368 0 b 308 31 333 11 321 19 b 283 68 296 42 289 54 b 278 119 276 83 278 100 l 278 1114 l 350 1114 l 350 121 b 364 75 350 103 353 88 b 407 57 374 63 386 57 b 453 75 428 57 442 63 b 468 121 464 88 468 103 "},"Ú":{"ha":817,"x_min":0,"x_max":0,"o":"m 469 1318 l 381 1188 l 447 1188 l 538 1318 m 468 1114 l 539 1114 l 539 119 b 499 31 539 81 522 51 b 408 -3 474 8 453 -3 b 350 6 386 -3 368 0 b 308 31 333 11 321 19 b 283 68 296 42 289 54 b 278 119 276 83 278 100 l 278 1114 l 350 1114 l 350 121 b 364 75 350 103 353 88 b 407 57 374 63 386 57 b 453 75 428 57 442 63 b 468 121 464 88 468 103 "},"Ü":{"ha":817,"x_min":0,"x_max":0,"o":"m 367 1251 b 317 1301 367 1279 344 1301 b 267 1251 289 1301 267 1279 b 317 1201 267 1224 289 1201 b 367 1251 344 1201 367 1224 m 554 1251 b 504 1301 554 1279 532 1301 b 454 1251 476 1301 454 1279 b 504 1201 454 1224 476 1201 b 554 1251 532 1201 554 1224 m 468 1114 l 539 1114 l 539 119 b 499 31 539 81 522 51 b 408 -3 474 8 453 -3 b 350 6 386 -3 368 0 b 308 31 333 11 321 19 b 283 68 296 42 289 54 b 278 119 276 83 278 100 l 278 1114 l 350 1114 l 350 121 b 364 75 350 103 353 88 b 407 57 374 63 386 57 b 453 75 428 57 442 63 b 468 121 464 88 468 103 "},"Ù":{"ha":817,"x_min":0,"x_max":0,"o":"m 344 1318 l 433 1188 l 367 1188 l 278 1318 m 468 1114 l 539 1114 l 539 119 b 499 31 539 81 522 51 b 408 -3 474 8 453 -3 b 350 6 386 -3 368 0 b 308 31 333 11 321 19 b 283 68 296 42 289 54 b 278 119 276 83 278 100 l 278 1114 l 350 1114 l 350 121 b 364 75 350 103 353 88 b 407 57 374 63 386 57 b 453 75 428 57 442 63 b 468 121 464 88 468 103 "},"V":{"ha":853,"x_min":0,"x_max":0,"o":"m 575 1113 l 461 0 l 392 0 l 278 1113 l 347 1113 l 426 339 l 506 1113 "},"W":{"ha":1050,"x_min":0,"x_max":0,"o":"m 772 1113 l 658 0 l 589 0 l 525 721 l 461 0 l 392 0 l 278 1113 l 347 1113 l 424 364 l 490 1113 l 560 1113 l 626 364 l 703 1113 "},"Ẃ":{"ha":1050,"x_min":0,"x_max":0,"o":"m 565 1188 l 499 1188 l 588 1318 l 656 1318 m 772 1113 l 658 0 l 589 0 l 525 721 l 461 0 l 392 0 l 278 1113 l 347 1113 l 424 364 l 490 1113 l 560 1113 l 626 364 l 703 1113 "},"Ẅ":{"ha":1050,"x_min":0,"x_max":0,"o":"m 433 1160 b 383 1210 406 1160 383 1182 b 433 1260 383 1238 406 1260 b 483 1210 461 1260 483 1238 b 433 1160 483 1182 461 1160 m 621 1160 b 571 1210 593 1160 571 1182 b 621 1260 571 1238 593 1260 b 671 1210 649 1260 671 1238 b 621 1160 671 1182 649 1160 m 772 1113 l 658 0 l 589 0 l 525 721 l 461 0 l 392 0 l 278 1113 l 347 1113 l 424 364 l 490 1113 l 560 1113 l 626 364 l 703 1113 "},"Ẁ":{"ha":1050,"x_min":0,"x_max":0,"o":"m 508 1188 l 419 1318 l 486 1318 l 575 1188 m 772 1113 l 658 0 l 589 0 l 525 721 l 461 0 l 392 0 l 278 1113 l 347 1113 l 424 364 l 490 1113 l 560 1113 l 626 364 l 703 1113 "},"X":{"ha":853,"x_min":0,"x_max":0,"o":"m 575 1113 l 461 556 l 575 0 l 506 0 l 426 385 l 347 0 l 278 0 l 392 556 l 278 1113 l 347 1113 l 426 726 l 506 1113 "},"Y":{"ha":853,"x_min":0,"x_max":0,"o":"m 575 1113 l 461 556 l 461 0 l 392 0 l 392 557 l 278 1113 l 347 1113 l 426 726 l 506 1113 "},"Ý":{"ha":853,"x_min":0,"x_max":0,"o":"m 456 1188 l 389 1188 l 478 1318 l 546 1318 m 575 1113 l 461 556 l 461 0 l 392 0 l 392 557 l 278 1113 l 347 1113 l 426 726 l 506 1113 "},"Ÿ":{"ha":853,"x_min":0,"x_max":0,"o":"m 338 1160 b 288 1210 310 1160 288 1182 b 338 1260 288 1238 310 1260 b 388 1210 365 1260 388 1238 b 338 1160 388 1182 365 1160 m 525 1160 b 475 1210 497 1160 475 1182 b 525 1260 475 1238 497 1260 b 575 1210 553 1260 575 1238 b 525 1160 575 1182 553 1160 m 506 1113 l 575 1113 l 461 556 l 461 0 l 392 0 l 392 557 l 278 1113 l 347 1113 l 426 726 "},"Ỳ":{"ha":853,"x_min":0,"x_max":0,"o":"m 401 1188 l 313 1318 l 379 1318 l 468 1188 m 575 1113 l 461 556 l 461 0 l 392 0 l 392 557 l 278 1113 l 347 1113 l 426 726 l 506 1113 "},"Z":{"ha":817,"x_min":0,"x_max":0,"o":"m 539 1111 l 360 69 l 539 69 l 539 0 l 278 0 l 457 1042 l 278 1042 l 278 1113 l 539 1113 "},"a":{"ha":819,"x_min":0,"x_max":0,"o":"m 472 0 l 456 190 l 364 190 l 347 0 l 278 0 l 375 1113 l 444 1113 l 542 0 m 371 260 l 450 260 l 410 711 "},"á":{"ha":819,"x_min":0,"x_max":0,"o":"m 468 1319 l 379 1189 l 446 1189 l 536 1319 m 472 0 l 456 190 l 364 190 l 347 0 l 278 0 l 375 1113 l 444 1113 l 542 0 m 371 260 l 450 260 l 410 711 "},"ä":{"ha":819,"x_min":0,"x_max":0,"o":"m 367 1210 b 317 1260 367 1238 344 1260 b 267 1210 289 1260 267 1238 b 317 1160 267 1182 289 1160 b 367 1210 344 1160 367 1182 m 554 1210 b 504 1260 554 1238 532 1260 b 454 1210 476 1260 454 1238 b 504 1160 454 1182 476 1160 b 554 1210 532 1160 554 1182 m 472 0 l 456 190 l 364 190 l 347 0 l 278 0 l 375 1113 l 444 1113 l 542 0 m 371 260 l 450 260 l 410 711 "},"à":{"ha":819,"x_min":0,"x_max":0,"o":"m 344 1318 l 433 1188 l 367 1188 l 278 1318 m 472 0 l 456 190 l 364 190 l 347 0 l 278 0 l 375 1113 l 444 1113 l 542 0 m 371 260 l 450 260 l 410 711 "},"ã":{"ha":819,"x_min":0,"x_max":0,"o":"m 513 1222 l 306 1222 l 306 1153 l 513 1153 m 472 0 l 456 190 l 364 190 l 347 0 l 278 0 l 375 1113 l 444 1113 l 542 0 m 371 260 l 450 260 l 410 711 "},"b":{"ha":817,"x_min":0,"x_max":0,"o":"m 401 1111 b 501 1079 447 1111 476 1100 b 539 988 525 1057 539 1026 b 539 633 539 988 539 636 b 501 549 538 597 524 569 b 497 544 500 547 499 546 b 501 540 499 543 500 542 b 539 450 525 519 539 489 l 539 124 b 501 33 539 85 525 56 b 401 0 476 11 447 0 l 278 0 l 278 1111 m 347 574 l 401 574 b 451 593 421 575 440 581 b 467 629 460 603 465 615 b 468 639 467 631 468 638 l 468 988 b 451 1033 468 1007 461 1022 b 401 1053 440 1046 421 1051 l 347 1053 m 401 60 b 451 78 421 60 440 65 b 468 124 461 90 468 106 l 468 440 b 451 485 468 458 461 474 b 404 504 440 497 424 503 b 347 504 404 504 347 504 l 347 60 "},"c":{"ha":817,"x_min":0,"x_max":0,"o":"m 468 439 l 539 439 l 539 122 b 499 33 539 83 522 54 b 408 0 474 11 453 0 b 350 8 386 0 368 3 b 308 33 333 14 321 22 b 283 71 296 44 289 57 b 278 122 276 86 278 103 l 278 997 b 283 1049 278 1017 276 1035 b 308 1088 289 1064 296 1076 b 350 1111 321 1097 333 1106 b 408 1121 368 1117 386 1121 b 499 1088 453 1121 474 1110 b 539 997 522 1065 539 1036 l 539 682 l 468 682 l 468 997 b 453 1042 468 1015 464 1031 b 407 1061 442 1054 428 1061 b 364 1042 386 1061 374 1054 b 350 997 353 1031 350 1015 l 350 124 b 364 78 350 106 353 90 b 407 60 374 65 386 60 b 453 78 428 60 442 65 b 468 124 464 90 468 106 "},"ç":{"ha":817,"x_min":0,"x_max":0,"o":"m 468 682 l 468 997 b 453 1042 468 1015 464 1031 b 407 1061 442 1054 428 1061 b 364 1042 386 1061 374 1054 b 350 997 353 1031 350 1015 l 350 124 b 364 78 350 106 353 90 b 407 60 374 65 386 60 b 453 78 428 60 442 65 b 468 124 464 90 468 106 l 468 439 l 539 439 l 539 122 b 499 33 539 83 522 54 b 433 1 479 15 461 6 l 433 -12 b 485 -86 463 -24 485 -51 b 407 -162 485 -128 450 -162 b 382 -158 399 -162 390 -161 l 382 -108 l 407 -108 b 431 -86 419 -108 431 -99 b 407 -62 431 -72 419 -62 l 382 -62 l 382 1 b 350 8 371 3 360 6 b 308 33 333 14 321 22 b 283 71 296 44 289 57 b 278 122 276 86 278 103 l 278 997 b 283 1049 278 1017 276 1035 b 308 1088 289 1064 296 1076 b 350 1111 321 1097 333 1106 b 408 1121 368 1117 386 1121 b 499 1088 453 1121 474 1110 b 539 997 522 1065 539 1036 l 539 682 "},"d":{"ha":817,"x_min":0,"x_max":0,"o":"m 401 1111 b 501 1078 447 1111 476 1100 b 539 988 525 1057 539 1026 l 539 124 b 501 33 539 85 525 56 b 401 0 476 11 447 0 l 278 0 l 278 1111 m 401 60 b 451 78 421 60 440 65 b 468 124 461 90 468 106 l 468 988 b 451 1033 468 1007 461 1022 b 401 1053 440 1046 421 1051 l 347 1053 l 347 60 "},"e":{"ha":778,"x_min":0,"x_max":0,"o":"m 347 1042 l 347 574 l 447 574 l 447 504 l 347 504 l 347 69 l 500 69 l 500 0 l 278 0 l 278 1113 l 500 1113 l 500 1042 "},"é":{"ha":778,"x_min":0,"x_max":0,"o":"m 425 1188 l 358 1188 l 447 1318 l 515 1318 m 500 1113 l 500 1042 l 347 1042 l 347 574 l 447 574 l 447 504 l 347 504 l 347 69 l 500 69 l 500 0 l 278 0 l 278 1113 "},"ë":{"ha":778,"x_min":0,"x_max":0,"o":"m 340 1210 b 290 1160 340 1182 318 1160 b 240 1210 263 1160 240 1182 b 290 1260 240 1238 263 1260 b 340 1210 318 1260 340 1238 m 478 1260 b 528 1210 506 1260 528 1238 b 478 1160 528 1182 506 1160 b 428 1210 450 1160 428 1182 b 478 1260 428 1238 450 1260 m 500 1113 l 500 1042 l 347 1042 l 347 574 l 447 574 l 447 504 l 347 504 l 347 69 l 500 69 l 500 0 l 278 0 l 278 1113 "},"è":{"ha":778,"x_min":0,"x_max":0,"o":"m 367 1188 l 278 1318 l 344 1318 l 433 1188 m 347 1042 l 347 574 l 447 574 l 447 504 l 347 504 l 347 69 l 500 69 l 500 0 l 278 0 l 278 1113 l 500 1113 l 500 1042 "},"f":{"ha":778,"x_min":0,"x_max":0,"o":"m 500 1042 l 347 1042 l 347 574 l 447 574 l 447 504 l 347 504 l 347 0 l 278 0 l 278 1113 l 500 1113 "},"g":{"ha":817,"x_min":0,"x_max":0,"o":"m 468 682 l 468 997 b 453 1042 468 1015 464 1031 b 407 1061 442 1054 428 1061 b 364 1042 386 1061 374 1054 b 350 997 353 1031 350 1015 l 350 124 b 364 78 350 106 353 90 b 407 60 374 65 386 60 b 453 78 428 60 442 65 b 468 124 464 90 468 106 l 468 458 l 424 458 l 424 529 l 539 529 l 539 122 b 499 33 539 83 522 54 b 408 0 474 11 453 0 b 350 8 386 0 368 3 b 308 33 333 14 321 22 b 283 71 296 44 289 57 b 278 122 276 86 278 103 l 278 997 b 283 1049 278 1017 276 1035 b 308 1088 289 1064 296 1076 b 350 1111 321 1097 333 1106 b 408 1121 368 1117 386 1121 b 499 1088 453 1121 474 1110 b 539 997 522 1065 539 1036 l 539 682 "},"h":{"ha":817,"x_min":0,"x_max":0,"o":"m 469 1113 l 539 1113 l 539 0 l 469 0 l 469 454 l 347 454 l 347 0 l 278 0 l 278 1113 l 347 1113 l 347 525 l 469 525 "},"i":{"ha":625,"x_min":0,"x_max":0,"o":"m 347 0 l 347 1113 l 278 1113 l 278 0 "},"í":{"ha":625,"x_min":0,"x_max":0,"o":"m 368 1318 l 279 1188 l 346 1188 l 436 1318 m 347 0 l 347 1113 l 278 1113 l 278 0 "},"ï":{"ha":625,"x_min":0,"x_max":0,"o":"m 271 1210 b 221 1260 271 1238 249 1260 b 171 1210 193 1260 171 1238 b 221 1160 171 1182 193 1160 b 271 1210 249 1160 271 1182 m 458 1210 b 408 1260 458 1238 436 1260 b 358 1210 381 1260 358 1238 b 408 1160 358 1182 381 1160 b 458 1210 436 1160 458 1182 m 347 0 l 347 1113 l 278 1113 l 278 0 "},"ì":{"ha":717,"x_min":0,"x_max":0,"o":"m 344 1318 l 433 1188 l 367 1188 l 278 1318 m 439 0 l 439 1113 l 369 1113 l 369 0 "},"ĳ":{"ha":1442,"x_min":0,"x_max":0,"o":"m 347 0 l 347 1113 l 278 1113 l 278 0 m 1164 1111 l 1092 1111 l 1092 118 b 1078 72 1092 100 1089 85 b 1035 54 1068 60 1056 54 b 989 72 1014 54 1000 60 b 975 118 978 85 975 100 l 975 503 l 903 503 l 903 117 b 943 28 903 78 919 49 b 1033 -6 968 6 989 -6 b 1092 3 1056 -6 1075 -3 b 1133 28 1108 8 1122 17 b 1158 65 1146 39 1153 51 b 1164 117 1165 81 1164 97 "},"j":{"ha":817,"x_min":0,"x_max":0,"o":"m 539 1111 l 467 1111 l 467 118 b 453 72 467 100 464 85 b 410 54 443 60 431 54 b 364 72 389 54 375 60 b 350 118 353 85 350 100 l 350 503 l 278 503 l 278 117 b 318 28 278 78 294 49 b 408 -6 343 6 364 -6 b 467 3 431 -6 450 -3 b 508 28 483 8 497 17 b 533 65 521 39 528 51 b 539 117 540 81 539 97 "},"k":{"ha":836,"x_min":0,"x_max":0,"o":"m 442 574 l 435 538 l 558 0 l 489 0 l 372 504 l 347 504 l 347 0 l 278 0 l 278 1113 l 347 1113 l 347 574 l 372 574 l 489 1113 l 558 1113 "},"l":{"ha":775,"x_min":0,"x_max":0,"o":"m 347 69 l 497 69 l 497 0 l 278 0 l 278 1113 l 347 1113 "},"ŀ":{"ha":775,"x_min":0,"x_max":0,"o":"m 497 69 l 497 0 l 278 0 l 278 375 b 236 440 253 386 236 411 b 278 507 236 469 253 496 l 278 1113 l 347 1113 l 347 506 b 386 440 371 493 386 469 b 347 376 386 413 371 389 l 347 69 "},"m":{"ha":899,"x_min":0,"x_max":0,"o":"m 551 1113 l 621 1113 l 621 0 l 551 0 l 551 542 l 485 0 l 414 0 l 347 542 l 347 0 l 278 0 l 278 1113 l 347 1113 l 450 285 "},"n":{"ha":817,"x_min":0,"x_max":0,"o":"m 469 1113 l 539 1113 l 539 0 l 469 0 l 347 704 l 347 0 l 278 0 l 278 1113 l 347 1113 l 469 408 "},"ñ":{"ha":817,"x_min":0,"x_max":0,"o":"m 306 1221 l 513 1221 l 513 1164 l 306 1164 m 469 1113 l 539 1113 l 539 0 l 469 0 l 347 704 l 347 0 l 278 0 l 278 1113 l 347 1113 l 469 408 "},"o":{"ha":817,"x_min":0,"x_max":0,"o":"m 278 993 b 283 1044 278 1013 276 1031 b 308 1083 289 1060 296 1072 b 350 1107 321 1093 333 1101 b 408 1117 368 1114 386 1117 b 499 1083 453 1117 474 1106 b 539 993 522 1061 539 1032 l 539 118 b 499 29 539 79 522 50 b 408 -4 474 7 453 -4 b 350 4 386 -4 368 -1 b 308 29 333 10 321 18 b 283 67 296 40 289 53 b 278 118 276 82 278 99 m 468 993 b 453 1038 468 1011 464 1026 b 407 1057 442 1050 428 1057 b 364 1038 386 1057 374 1050 b 350 993 353 1026 350 1011 l 350 119 b 364 74 350 101 353 86 b 407 56 374 61 386 56 b 453 74 428 56 442 61 b 468 119 464 86 468 101 "},"ó":{"ha":817,"x_min":0,"x_max":0,"o":"m 476 1318 l 388 1188 l 454 1188 l 544 1318 m 278 993 b 283 1044 278 1013 276 1031 b 308 1083 289 1060 296 1072 b 350 1107 321 1093 333 1101 b 408 1117 368 1114 386 1117 b 499 1083 453 1117 474 1106 b 539 993 522 1061 539 1032 l 539 118 b 499 29 539 79 522 50 b 408 -4 474 7 453 -4 b 350 4 386 -4 368 -1 b 308 29 333 10 321 18 b 283 67 296 40 289 53 b 278 118 276 82 278 99 m 468 993 b 453 1038 468 1011 464 1026 b 407 1057 442 1050 428 1057 b 364 1038 386 1057 374 1050 b 350 993 353 1026 350 1011 l 350 119 b 364 74 350 101 353 86 b 407 56 374 61 386 56 b 453 74 428 56 442 61 b 468 119 464 86 468 101 "},"ö":{"ha":817,"x_min":0,"x_max":0,"o":"m 367 1210 b 317 1260 367 1238 344 1260 b 267 1210 289 1260 267 1238 b 317 1160 267 1182 289 1160 b 367 1210 344 1160 367 1182 m 554 1210 b 504 1260 554 1238 532 1260 b 454 1210 476 1260 454 1238 b 504 1160 454 1182 476 1160 b 554 1210 532 1160 554 1182 m 278 993 b 283 1044 278 1013 276 1031 b 308 1083 289 1060 296 1072 b 350 1107 321 1093 333 1101 b 408 1117 368 1114 386 1117 b 499 1083 453 1117 474 1106 b 539 993 522 1061 539 1032 l 539 118 b 499 29 539 79 522 50 b 408 -4 474 7 453 -4 b 350 4 386 -4 368 -1 b 308 29 333 10 321 18 b 283 67 296 40 289 53 b 278 118 276 82 278 99 m 468 993 b 453 1038 468 1011 464 1026 b 407 1057 442 1050 428 1057 b 364 1038 386 1057 374 1050 b 350 993 353 1026 350 1011 l 350 119 b 364 74 350 101 353 86 b 407 56 374 61 386 56 b 453 74 428 56 442 61 b 468 119 464 86 468 101 "},"ò":{"ha":817,"x_min":0,"x_max":0,"o":"m 372 1318 l 461 1188 l 394 1188 l 306 1318 m 278 993 b 283 1044 278 1013 276 1031 b 308 1083 289 1060 296 1072 b 350 1107 321 1093 333 1101 b 408 1117 368 1114 386 1117 b 499 1083 453 1117 474 1106 b 539 993 522 1061 539 1032 l 539 118 b 499 29 539 79 522 50 b 408 -4 474 7 453 -4 b 350 4 386 -4 368 -1 b 308 29 333 10 321 18 b 283 67 296 40 289 53 b 278 118 276 82 278 99 m 468 993 b 453 1038 468 1011 464 1026 b 407 1057 442 1050 428 1057 b 364 1038 386 1057 374 1050 b 350 993 353 1026 350 1011 l 350 119 b 364 74 350 101 353 86 b 407 56 374 61 386 56 b 453 74 428 56 442 61 b 468 119 464 86 468 101 "},"ø":{"ha":1014,"x_min":0,"x_max":0,"o":"m 639 690 l 639 122 b 599 33 639 83 622 54 b 508 0 575 11 553 0 b 450 8 486 0 468 3 b 408 33 433 14 421 22 b 383 71 396 44 389 57 b 378 122 376 86 378 103 l 378 353 l 331 292 l 278 336 l 378 465 l 378 997 b 383 1049 378 1017 376 1035 b 408 1088 389 1064 396 1076 b 450 1111 421 1097 433 1106 b 508 1121 468 1118 486 1121 b 599 1088 553 1121 575 1110 b 639 997 622 1065 639 1036 l 639 803 l 685 863 l 736 817 m 450 558 l 568 711 l 568 997 b 553 1042 568 1015 564 1031 b 507 1061 543 1054 528 1061 b 464 1042 486 1061 474 1054 b 450 997 454 1031 450 1015 m 568 599 l 450 446 l 450 124 b 464 78 450 106 454 90 b 507 60 474 65 486 60 b 553 78 528 60 543 65 b 568 124 564 90 568 106 "},"õ":{"ha":817,"x_min":0,"x_max":0,"o":"m 513 1222 l 306 1222 l 306 1153 l 513 1153 m 278 993 b 283 1044 278 1013 276 1031 b 308 1083 289 1060 296 1072 b 350 1107 321 1093 333 1101 b 408 1117 368 1114 386 1117 b 499 1083 453 1117 474 1106 b 539 993 522 1061 539 1032 l 539 118 b 499 29 539 79 522 50 b 408 -4 474 7 453 -4 b 350 4 386 -4 368 -1 b 308 29 333 10 321 18 b 283 67 296 40 289 53 b 278 118 276 82 278 99 m 468 993 b 453 1038 468 1011 464 1026 b 407 1057 442 1050 428 1057 b 364 1038 386 1057 374 1050 b 350 993 353 1026 350 1011 l 350 119 b 364 74 350 101 353 86 b 407 56 374 61 386 56 b 453 74 428 56 442 61 b 468 119 464 86 468 101 "},"p":{"ha":817,"x_min":0,"x_max":0,"o":"m 401 1111 b 501 1078 447 1111 476 1100 b 539 988 525 1057 539 1026 l 539 628 b 501 538 539 589 525 560 b 401 504 476 515 447 504 l 347 504 l 347 0 l 278 0 l 278 1111 m 468 988 b 451 1033 468 1007 461 1022 b 401 1053 440 1046 421 1051 l 347 1053 l 347 574 l 401 574 b 451 593 421 575 440 581 b 468 639 461 604 468 619 "},"q":{"ha":864,"x_min":0,"x_max":0,"o":"m 586 25 l 550 -22 l 492 22 b 408 -6 471 4 449 -6 b 350 4 386 -6 368 -1 b 308 29 333 10 321 18 b 283 67 296 39 289 51 b 278 118 276 81 278 99 l 278 993 b 283 1044 278 1013 276 1029 b 308 1082 289 1058 296 1071 b 350 1107 321 1093 333 1101 b 408 1115 368 1113 386 1115 b 499 1082 453 1115 474 1104 b 539 993 522 1061 539 1032 l 539 118 b 529 68 539 99 535 83 m 350 118 b 364 74 350 100 353 85 b 407 54 374 61 386 54 b 453 74 428 54 442 61 b 468 118 464 85 468 100 l 468 992 b 453 1038 468 1010 464 1025 b 407 1056 442 1050 428 1056 b 364 1038 386 1056 374 1050 b 350 992 353 1025 350 1010 "},"r":{"ha":817,"x_min":0,"x_max":0,"o":"m 539 639 b 501 549 539 600 525 569 b 497 544 500 547 499 546 b 501 540 499 543 500 542 b 539 450 525 519 539 489 l 539 0 l 468 0 l 468 440 b 451 485 468 458 461 474 b 404 504 440 497 424 503 b 347 504 404 504 347 504 l 347 0 l 278 0 l 278 1111 l 401 1111 b 501 1078 447 1111 476 1100 b 539 988 525 1057 539 1026 m 347 1053 l 347 574 l 401 574 b 451 593 421 575 440 581 b 468 639 461 604 468 619 l 468 988 b 451 1033 468 1007 461 1022 b 401 1053 440 1046 421 1051 "},"s":{"ha":858,"x_min":0,"x_max":0,"o":"m 581 761 l 510 761 l 510 982 b 493 1028 510 1001 503 1017 b 440 1047 482 1040 461 1047 b 389 1028 419 1047 399 1040 b 374 982 378 1017 374 1001 b 389 797 374 913 378 850 b 426 653 399 744 411 696 b 476 531 442 610 458 568 b 499 472 483 510 490 492 b 531 372 511 442 522 408 b 554 254 540 336 549 297 b 558 110 560 213 558 164 b 549 58 558 90 556 74 b 521 19 542 43 532 31 b 476 -6 508 10 493 1 b 415 -14 458 -11 438 -14 b 315 19 371 -14 340 -3 b 278 110 292 42 278 71 l 278 332 l 350 332 l 350 110 b 365 64 350 92 356 76 b 418 46 376 51 397 46 b 469 64 439 46 460 51 b 485 110 481 76 485 92 b 469 296 485 181 481 243 b 432 440 460 349 447 397 b 397 531 419 472 410 501 b 360 621 397 531 372 590 b 328 719 347 651 336 685 b 304 838 318 756 310 796 b 300 982 299 881 300 929 b 310 1035 300 1001 303 1019 b 338 1072 317 1049 326 1063 b 382 1097 350 1083 365 1092 b 443 1107 400 1103 422 1107 b 543 1074 488 1107 518 1096 b 581 982 567 1051 581 1021 "},"t":{"ha":817,"x_min":0,"x_max":0,"o":"m 539 1111 l 539 1042 l 443 1042 l 443 0 l 374 0 l 374 1042 l 278 1042 l 278 1111 "},"u":{"ha":817,"x_min":0,"x_max":0,"o":"m 468 1114 l 539 1114 l 539 119 b 499 31 539 81 522 51 b 408 -3 474 8 453 -3 b 350 6 386 -3 368 0 b 308 31 333 11 321 19 b 283 68 296 42 289 54 b 278 119 276 83 278 100 l 278 1114 l 350 1114 l 350 121 b 364 75 350 103 353 88 b 407 57 374 63 386 57 b 453 75 428 57 442 63 b 468 121 464 88 468 103 "},"ú":{"ha":817,"x_min":0,"x_max":0,"o":"m 469 1318 l 381 1188 l 447 1188 l 538 1318 m 468 1114 l 539 1114 l 539 119 b 499 31 539 81 522 51 b 408 -3 474 8 453 -3 b 350 6 386 -3 368 0 b 308 31 333 11 321 19 b 283 68 296 42 289 54 b 278 119 276 83 278 100 l 278 1114 l 350 1114 l 350 121 b 364 75 350 103 353 88 b 407 57 374 63 386 57 b 453 75 428 57 442 63 b 468 121 464 88 468 103 "},"ü":{"ha":817,"x_min":0,"x_max":0,"o":"m 367 1210 b 317 1260 367 1238 344 1260 b 267 1210 289 1260 267 1238 b 317 1160 267 1182 289 1160 b 367 1210 344 1160 367 1182 m 554 1210 b 504 1260 554 1238 532 1260 b 454 1210 476 1260 454 1238 b 504 1160 454 1182 476 1160 b 554 1210 532 1160 554 1182 m 468 1114 l 539 1114 l 539 119 b 499 31 539 81 522 51 b 408 -3 474 8 453 -3 b 350 6 386 -3 368 0 b 308 31 333 11 321 19 b 283 68 296 42 289 54 b 278 119 276 83 278 100 l 278 1114 l 350 1114 l 350 121 b 364 75 350 103 353 88 b 407 57 374 63 386 57 b 453 75 428 57 442 63 b 468 121 464 88 468 103 "},"ù":{"ha":817,"x_min":0,"x_max":0,"o":"m 368 1318 l 457 1188 l 390 1188 l 301 1318 m 468 1114 l 539 1114 l 539 119 b 499 31 539 81 522 51 b 408 -3 474 8 453 -3 b 350 6 386 -3 368 0 b 308 31 333 11 321 19 b 283 68 296 42 289 54 b 278 119 276 83 278 100 l 278 1114 l 350 1114 l 350 121 b 364 75 350 103 353 88 b 407 57 374 63 386 57 b 453 75 428 57 442 63 b 468 121 464 88 468 103 "},"v":{"ha":853,"x_min":0,"x_max":0,"o":"m 575 1113 l 461 0 l 392 0 l 278 1113 l 347 1113 l 426 339 l 506 1113 "},"w":{"ha":1050,"x_min":0,"x_max":0,"o":"m 772 1113 l 658 0 l 589 0 l 525 721 l 461 0 l 392 0 l 278 1113 l 347 1113 l 424 364 l 490 1113 l 560 1113 l 626 364 l 703 1113 "},"ẃ":{"ha":1050,"x_min":0,"x_max":0,"o":"m 551 1188 l 485 1188 l 574 1318 l 642 1318 m 772 1113 l 658 0 l 589 0 l 525 721 l 461 0 l 392 0 l 278 1113 l 347 1113 l 424 364 l 490 1113 l 560 1113 l 626 364 l 703 1113 "},"ẅ":{"ha":1050,"x_min":0,"x_max":0,"o":"m 431 1160 b 381 1210 403 1160 381 1182 b 431 1260 381 1238 403 1260 b 481 1210 458 1260 481 1238 b 431 1160 481 1182 458 1160 m 618 1160 b 568 1210 590 1160 568 1182 b 618 1260 568 1238 590 1260 b 668 1210 646 1260 668 1238 b 618 1160 668 1182 646 1160 m 772 1113 l 658 0 l 589 0 l 525 721 l 461 0 l 392 0 l 278 1113 l 347 1113 l 424 364 l 490 1113 l 560 1113 l 626 364 l 703 1113 "},"ẁ":{"ha":1050,"x_min":0,"x_max":0,"o":"m 508 1188 l 419 1318 l 486 1318 l 575 1188 m 772 1113 l 658 0 l 589 0 l 525 721 l 461 0 l 392 0 l 278 1113 l 347 1113 l 424 364 l 490 1113 l 560 1113 l 626 364 l 703 1113 "},"x":{"ha":853,"x_min":0,"x_max":0,"o":"m 575 1113 l 461 556 l 575 0 l 506 0 l 426 385 l 347 0 l 278 0 l 392 556 l 278 1113 l 347 1113 l 426 726 l 506 1113 "},"y":{"ha":853,"x_min":0,"x_max":0,"o":"m 575 1113 l 461 556 l 461 0 l 392 0 l 392 557 l 278 1113 l 347 1113 l 426 726 l 506 1113 "},"ý":{"ha":853,"x_min":0,"x_max":0,"o":"m 454 1188 l 388 1188 l 476 1318 l 544 1318 m 575 1113 l 461 556 l 461 0 l 392 0 l 392 557 l 278 1113 l 347 1113 l 426 726 l 506 1113 "},"ÿ":{"ha":853,"x_min":0,"x_max":0,"o":"m 332 1160 b 282 1210 304 1160 282 1182 b 332 1260 282 1238 304 1260 b 382 1210 360 1260 382 1238 b 332 1160 382 1182 360 1160 m 519 1160 b 469 1210 492 1160 469 1182 b 519 1260 469 1238 492 1260 b 569 1210 547 1260 569 1238 b 519 1160 569 1182 547 1160 m 575 1113 l 461 556 l 461 0 l 392 0 l 392 557 l 278 1113 l 347 1113 l 426 726 l 506 1113 "},"ỳ":{"ha":853,"x_min":0,"x_max":0,"o":"m 401 1188 l 313 1318 l 379 1318 l 468 1188 m 575 1113 l 461 556 l 461 0 l 392 0 l 392 557 l 278 1113 l 347 1113 l 426 726 l 506 1113 "},"z":{"ha":817,"x_min":0,"x_max":0,"o":"m 539 1111 l 360 69 l 539 69 l 539 0 l 278 0 l 457 1042 l 278 1042 l 278 1113 l 539 1113 "},"⁄":{"ha":1265,"x_min":0,"x_max":0,"o":"m 347 0 l 988 1113 l 918 1113 l 278 0 "},"*":{"ha":833,"x_min":0,"x_max":0,"o":"m 546 988 l 458 988 l 414 910 l 374 933 l 404 988 l 342 988 l 342 1033 l 431 1033 l 474 1111 l 514 1088 l 483 1033 l 546 1033 "},"\\":{"ha":924,"x_min":0,"x_max":0,"o":"m 646 0 l 347 1113 l 278 1113 l 576 0 "},":":{"ha":657,"x_min":0,"x_max":0,"o":"m 379 878 b 328 928 379 906 356 928 b 278 878 300 928 278 906 b 328 828 278 850 300 828 b 379 878 356 828 379 850 m 379 164 b 328 214 379 192 356 214 b 278 164 300 214 278 192 b 328 114 278 136 300 114 b 379 164 356 114 379 136 "},",":{"ha":679,"x_min":0,"x_max":0,"o":"m 401 50 b 390 18 401 38 397 28 b 278 -58 354 -39 278 -58 b 322 -1 278 -58 303 -35 b 326 7 324 1 325 4 b 300 50 311 15 300 31 b 351 100 300 78 324 100 b 401 50 379 100 401 78 "},"…":{"ha":0,"x_min":0,"x_max":0,"o":"m 328 100 b 378 50 356 100 378 78 b 328 0 378 22 356 0 b 278 50 300 0 278 22 b 328 100 278 78 300 100 "},"!":{"ha":651,"x_min":0,"x_max":0,"o":"m 292 1113 l 292 185 l 360 185 l 360 1113 m 278 44 b 325 -4 278 18 299 -4 b 374 44 353 -4 374 18 b 325 93 374 71 353 93 b 278 44 299 93 278 71 "},"¡":{"ha":653,"x_min":0,"x_max":0,"o":"m 375 1014 b 326 1063 375 1040 353 1063 b 278 1014 300 1063 278 1040 b 326 965 278 988 300 965 b 375 1014 353 965 375 988 m 360 -54 l 360 872 l 293 872 l 293 -54 "},"#":{"ha":1057,"x_min":0,"x_max":0,"o":"m 779 597 l 640 597 l 625 504 l 754 504 l 754 436 l 614 436 l 539 0 l 468 0 l 543 436 l 474 436 l 397 0 l 328 0 l 403 436 l 278 436 l 278 504 l 414 504 l 431 597 l 303 597 l 303 664 l 442 664 l 519 1113 l 589 1113 l 513 664 l 582 664 l 660 1113 l 729 1113 l 653 664 l 779 664 m 554 504 l 571 597 l 500 597 l 485 504 "},".":{"ha":656,"x_min":0,"x_max":0,"o":"m 378 50 b 328 100 378 78 356 100 b 278 50 300 100 278 78 b 328 0 278 22 300 0 b 378 50 356 0 378 22 "},"·":{"ha":697,"x_min":0,"x_max":0,"o":"m 419 403 b 349 474 419 442 388 474 b 278 403 310 474 278 442 b 349 332 278 364 310 332 b 419 403 388 332 419 364 "},"?":{"ha":817,"x_min":0,"x_max":0,"o":"m 350 604 l 278 604 l 278 990 b 318 1079 278 1029 294 1058 b 408 1113 343 1101 364 1113 b 467 1104 431 1113 450 1110 b 508 1079 483 1099 497 1090 b 533 1042 521 1068 528 1056 b 539 990 540 1026 539 1010 b 539 603 539 990 539 668 b 461 415 539 538 461 507 b 461 185 461 324 461 185 l 390 185 b 390 428 390 185 390 331 b 467 625 390 524 467 557 b 467 989 467 694 467 989 b 453 1035 467 1007 464 1022 b 410 1053 443 1047 431 1053 b 364 1035 389 1053 375 1047 b 350 989 353 1022 350 1007 m 474 44 b 425 93 474 71 453 93 b 376 44 399 93 376 71 b 425 -4 376 18 399 -4 b 474 44 453 -4 474 18 "},"¿":{"ha":817,"x_min":0,"x_max":0,"o":"m 343 1014 b 390 965 343 988 364 965 b 439 1014 418 965 439 988 b 390 1063 439 1040 418 1063 b 343 1014 364 1063 343 1040 m 467 454 l 539 454 l 539 68 b 497 -21 539 29 522 0 b 408 -54 474 -43 453 -54 b 350 -46 386 -54 367 -51 b 308 -21 333 -40 319 -32 b 282 17 296 -10 289 3 b 278 68 276 32 278 49 b 278 456 278 68 278 390 b 356 643 278 521 356 551 b 356 874 356 735 356 874 l 426 874 b 426 631 426 874 426 728 b 349 433 426 535 349 503 b 349 69 349 364 349 69 b 363 24 349 51 353 36 b 407 6 374 11 386 6 b 453 24 426 6 442 11 b 467 69 463 36 467 51 "},"\"":{"ha":682,"x_min":0,"x_max":0,"o":"m 328 1057 l 328 1192 l 278 1192 l 278 1057 m 404 1057 l 404 1192 l 354 1192 l 354 1057 "},"'":{"ha":606,"x_min":0,"x_max":0,"o":"m 328 1057 l 328 1192 l 278 1192 l 278 1057 "},";":{"ha":679,"x_min":0,"x_max":0,"o":"m 351 713 b 300 764 324 713 300 736 b 351 814 300 792 324 814 b 401 764 379 814 401 792 b 351 713 401 736 379 713 m 351 100 b 401 50 379 100 401 78 b 390 18 401 38 397 28 b 278 -58 354 -39 278 -58 b 322 -1 278 -58 303 -35 b 326 7 324 1 325 4 b 300 50 311 15 300 31 b 351 100 300 78 324 100 "},"/":{"ha":817,"x_min":0,"x_max":0,"o":"m 347 0 l 539 1113 l 469 1113 l 278 0 "},"_":{"ha":850,"x_min":0,"x_max":0,"o":"m 278 0 l 572 0 l 572 67 l 278 67 "},"[":{"ha":686,"x_min":0,"x_max":0,"o":"m 351 1099 l 351 22 l 408 22 l 408 -51 l 278 -51 l 278 1172 l 408 1172 l 408 1099 "},"]":{"ha":686,"x_min":0,"x_max":0,"o":"m 408 1171 l 408 -53 l 278 -53 l 278 21 l 336 21 l 336 1097 l 278 1097 l 278 1171 "},"(":{"ha":686,"x_min":0,"x_max":0,"o":"m 350 72 b 364 26 350 54 354 39 b 407 7 375 14 386 7 b 408 -51 408 -51 407 7 b 351 -43 388 -51 368 -49 b 308 -18 335 -37 321 -29 b 283 19 297 -8 290 4 b 278 71 278 35 278 51 l 278 1049 b 283 1100 278 1068 278 1085 b 308 1138 290 1114 297 1126 b 351 1163 321 1149 335 1157 b 408 1171 368 1168 388 1171 b 407 1111 407 1111 408 1171 b 364 1093 386 1111 375 1106 b 350 1047 354 1081 350 1065 "},")":{"ha":688,"x_min":0,"x_max":0,"o":"m 338 1046 b 324 1092 338 1065 335 1081 b 278 1111 313 1104 299 1111 b 279 1169 279 1169 278 1111 b 369 1138 324 1169 344 1158 b 410 1047 393 1115 410 1086 l 410 69 b 369 -19 410 31 393 1 b 279 -53 344 -42 324 -53 b 278 7 278 7 279 -53 b 324 25 299 7 313 13 b 338 71 335 38 338 53 "},"—":{"ha":1192,"x_min":0,"x_max":0,"o":"m 278 504 l 914 504 l 914 571 l 278 571 "},"–":{"ha":951,"x_min":0,"x_max":0,"o":"m 278 504 l 674 504 l 674 571 l 278 571 "},"-":{"ha":850,"x_min":0,"x_max":0,"o":"m 278 504 l 572 504 l 572 571 l 278 571 "},"«":{"ha":889,"x_min":0,"x_max":0,"o":"m 386 261 l 278 478 l 386 694 l 456 694 l 349 478 l 457 261 m 540 261 l 432 478 l 540 694 l 610 694 l 503 478 l 611 261 "},"»":{"ha":889,"x_min":0,"x_max":0,"o":"m 349 694 l 457 478 l 349 261 l 279 261 l 386 478 l 278 694 m 503 694 l 611 478 l 503 261 l 433 261 l 540 478 l 432 694 "},"‹":{"ha":735,"x_min":0,"x_max":0,"o":"m 386 261 l 278 478 l 386 694 l 456 694 l 349 478 l 457 261 "},"›":{"ha":735,"x_min":0,"x_max":0,"o":"m 349 694 l 457 478 l 349 261 l 279 261 l 386 478 l 278 694 "},"„":{"ha":833,"x_min":0,"x_max":0,"o":"m 401 50 b 390 18 401 38 397 28 b 278 -58 354 -39 278 -58 b 322 -1 278 -58 303 -35 b 326 7 324 1 325 4 b 300 50 311 15 300 31 b 351 100 300 78 324 100 b 401 50 379 100 401 78 "},"‘":{"ha":606,"x_min":0,"x_max":0,"o":"m 328 1057 l 328 1192 l 278 1192 l 278 1057 "},"’":{"ha":606,"x_min":0,"x_max":0,"o":"m 328 1057 l 328 1192 l 278 1192 l 278 1057 "},"‚":{"ha":833,"x_min":0,"x_max":0,"o":"m 401 50 b 390 18 401 38 397 28 b 278 -58 354 -39 278 -58 b 322 -1 278 -58 303 -35 b 326 7 324 1 325 4 b 300 50 311 15 300 31 b 351 100 300 78 324 100 b 401 50 379 100 401 78 "},"$":{"ha":847,"x_min":0,"x_max":0,"o":"m 458 615 b 507 563 481 592 503 568 b 544 511 518 544 535 531 b 565 443 554 490 560 468 b 569 382 569 425 571 404 b 564 122 569 363 571 138 b 540 83 558 108 551 94 b 497 60 528 74 514 65 b 458 51 486 56 472 53 l 458 0 l 389 0 l 389 51 b 350 60 375 53 361 56 b 307 83 333 65 319 74 b 283 122 296 94 290 108 b 278 203 276 138 278 183 l 278 396 l 349 396 l 349 174 b 363 129 349 156 353 140 b 389 113 369 121 378 115 l 389 585 b 374 601 382 592 376 599 b 336 654 374 601 349 636 b 304 711 325 671 314 690 b 282 778 294 731 288 754 b 278 818 279 788 278 804 l 278 831 b 278 861 276 847 278 861 l 278 1049 b 282 1100 278 1068 276 1085 b 307 1138 289 1114 296 1126 b 350 1163 319 1149 333 1156 b 389 1169 361 1167 375 1168 l 389 1221 l 458 1221 l 458 1169 b 497 1163 472 1168 486 1167 b 540 1138 514 1156 528 1149 b 565 1100 551 1126 558 1114 b 569 1049 571 1085 569 1068 l 569 825 l 499 825 l 499 1047 b 485 1093 499 1065 494 1081 b 458 1110 478 1101 469 1107 m 349 861 b 365 754 349 821 356 785 b 389 707 371 738 379 722 l 389 1110 b 363 1093 378 1107 369 1101 b 349 1047 353 1081 349 1065 m 458 113 b 485 129 469 115 478 121 b 499 174 494 140 499 156 l 499 361 b 483 467 499 400 493 436 b 458 504 481 475 471 489 "},"≈":{"ha":833,"x_min":0,"x_max":0,"o":""},"~":{"ha":833,"x_min":0,"x_max":0,"o":""},"÷":{"ha":833,"x_min":0,"x_max":0,"o":""},"∅":{"ha":833,"x_min":0,"x_max":0,"o":""},"=":{"ha":951,"x_min":0,"x_max":0,"o":"m 278 574 l 674 574 l 674 640 l 278 640 m 278 428 l 674 428 l 674 494 l 278 494 "},">":{"ha":833,"x_min":0,"x_max":0,"o":""},"≥":{"ha":833,"x_min":0,"x_max":0,"o":""},"∞":{"ha":833,"x_min":0,"x_max":0,"o":""},"∫":{"ha":833,"x_min":0,"x_max":0,"o":""},"<":{"ha":833,"x_min":0,"x_max":0,"o":""},"≤":{"ha":833,"x_min":0,"x_max":0,"o":""},"¬":{"ha":833,"x_min":0,"x_max":0,"o":""},"−":{"ha":951,"x_min":0,"x_max":0,"o":"m 278 504 l 674 504 l 674 571 l 278 571 "},"×":{"ha":833,"x_min":0,"x_max":0,"o":""},"≠":{"ha":833,"x_min":0,"x_max":0,"o":"m 446 574 l 432 494 l 674 494 l 674 428 l 421 428 l 347 0 l 278 0 l 351 428 l 278 428 l 278 494 l 363 494 l 376 574 l 278 574 l 278 640 l 388 640 l 469 1113 l 539 1113 l 457 640 l 674 640 l 674 574 "},"∂":{"ha":833,"x_min":0,"x_max":0,"o":""},"%":{"ha":1132,"x_min":0,"x_max":0,"o":"m 347 -28 l 854 1140 l 785 1140 l 278 -28 m 447 985 b 376 1057 447 1025 415 1057 b 306 985 338 1057 306 1025 b 376 914 306 946 338 914 b 447 985 415 914 447 946 m 826 126 b 756 197 826 165 794 197 b 685 126 717 197 685 165 b 756 56 685 88 717 56 b 826 126 794 56 826 88 "},"‰":{"ha":833,"x_min":0,"x_max":0,"o":""},"+":{"ha":951,"x_min":0,"x_max":0,"o":"m 674 571 l 674 504 l 510 504 l 510 340 l 443 340 l 443 504 l 278 504 l 278 571 l 443 571 l 443 736 l 510 736 l 510 571 "},"±":{"ha":833,"x_min":0,"x_max":0,"o":""},"∏":{"ha":833,"x_min":0,"x_max":0,"o":""},"√":{"ha":833,"x_min":0,"x_max":0,"o":""},"∑":{"ha":833,"x_min":0,"x_max":0,"o":""},"&":{"ha":872,"x_min":0,"x_max":0,"o":"m 592 465 b 592 457 592 464 592 461 b 578 225 592 424 594 322 b 560 153 572 199 567 175 b 594 0 578 90 594 24 l 522 0 b 511 54 522 6 519 21 b 421 3 486 25 456 7 b 394 1 415 1 408 1 b 388 1 392 1 389 1 l 386 1 l 383 3 b 339 18 364 4 349 13 b 282 94 313 33 293 60 l 282 96 b 279 107 281 100 281 104 b 278 119 279 110 278 114 b 278 378 278 125 278 324 b 342 571 278 453 307 514 b 339 574 340 572 340 574 b 278 840 307 642 281 694 l 279 840 l 279 1013 b 396 1122 289 1075 338 1122 l 421 1122 b 539 994 485 1122 538 1065 l 539 840 b 438 585 539 736 488 658 b 424 565 432 578 428 572 b 458 481 435 542 446 515 b 515 306 476 428 496 367 b 519 456 521 372 519 432 b 519 465 519 460 519 464 m 396 1050 b 350 992 371 1050 350 1024 l 350 842 b 388 640 351 736 365 689 b 467 840 429 703 467 764 l 467 992 b 421 1050 467 1024 446 1050 m 413 74 b 485 154 435 78 463 96 b 481 171 483 160 482 165 b 389 457 453 267 419 371 b 378 489 386 468 382 479 b 350 378 361 454 350 418 b 350 125 350 324 350 165 b 351 118 351 122 351 119 b 351 114 351 117 351 115 b 375 81 357 99 365 88 b 390 74 382 76 386 75 b 396 74 392 74 393 74 b 413 74 400 74 408 74 "},"@":{"ha":1018,"x_min":0,"x_max":0,"o":"m 535 1153 b 740 947 649 1153 740 1061 l 740 233 b 699 138 740 203 733 160 b 619 131 669 119 636 124 b 589 153 608 136 597 144 b 522 124 571 135 547 124 l 504 124 b 407 231 450 124 407 172 l 407 878 b 504 985 407 936 450 985 l 522 985 b 619 878 575 985 619 936 l 619 236 b 647 192 619 218 629 200 b 663 194 649 192 657 190 b 674 233 669 199 674 214 l 674 947 b 535 1086 674 1024 611 1086 l 483 1086 b 344 947 407 1086 344 1024 l 344 165 b 483 26 344 89 407 26 l 535 26 b 611 50 563 26 589 35 l 649 -6 b 535 -40 615 -28 575 -40 l 483 -40 b 278 165 371 -40 278 53 l 278 947 b 483 1153 278 1061 371 1153 m 522 190 b 553 231 539 190 553 208 l 553 878 b 522 918 553 900 539 918 l 504 918 b 474 878 488 918 474 900 l 474 231 b 504 190 474 208 488 190 "},"|":{"ha":625,"x_min":0,"x_max":0,"o":"m 347 -97 l 347 1222 l 278 1222 l 278 -97 "},"¦":{"ha":625,"x_min":0,"x_max":0,"o":"m 347 683 l 347 1224 l 278 1224 l 278 683 m 347 -97 l 347 443 l 278 443 l 278 -97 "},"´":{"ha":713,"x_min":0,"x_max":0,"o":"m 367 1318 l 278 1188 l 344 1188 l 435 1318 "},"¸":{"ha":833,"x_min":0,"x_max":0,"o":"m 433 -12 b 485 -86 463 -24 485 -51 b 407 -162 485 -128 450 -162 b 382 -158 399 -162 390 -161 l 382 -108 l 407 -108 b 431 -86 419 -108 431 -99 b 407 -62 431 -72 419 -62 l 382 -62 l 382 33 l 433 33 "},"¨":{"ha":833,"x_min":0,"x_max":0,"o":"m 367 1210 b 317 1260 367 1238 344 1260 b 267 1210 289 1260 267 1238 b 317 1160 267 1182 289 1160 b 367 1210 344 1160 367 1182 m 554 1210 b 504 1260 554 1238 532 1260 b 454 1210 476 1260 454 1238 b 504 1160 454 1182 476 1160 b 554 1210 532 1160 554 1182 "},"`":{"ha":711,"x_min":0,"x_max":0,"o":"m 344 1318 l 433 1188 l 367 1188 l 278 1318 "},"˝":{"ha":682,"x_min":0,"x_max":0,"o":"m 328 1057 l 328 1192 l 278 1192 l 278 1057 m 404 1057 l 404 1192 l 354 1192 l 354 1057 "},"¯":{"ha":951,"x_min":0,"x_max":0,"o":"m 278 906 l 674 906 l 674 972 l 278 972 "},"˜":{"ha":833,"x_min":0,"x_max":0,"o":"m 513 1222 l 306 1222 l 306 1153 l 513 1153 "}," ":{"ha":556,"x_min":0,"x_max":0,"o":""}}}
